<svg width="250" height="83" viewBox="0 0 250 83" fill="none" xmlns="http://www.w3.org/2000/svg">
<path d="M27.2734 34.6836C27.2734 36.8164 27.0365 38.7396 26.5625 40.4531C26.1068 42.1484 25.4232 43.5977 24.5117 44.8008C23.6185 46.0039 22.5156 46.9245 21.2031 47.5625C19.8906 48.2005 18.3867 48.5195 16.6914 48.5195C15.9076 48.5195 15.1784 48.4375 14.5039 48.2734C13.8477 48.1276 13.2005 47.8815 12.5625 47.5352C11.9245 47.1888 11.2865 46.7513 10.6484 46.2227C10.0104 45.694 9.33594 45.056 8.625 44.3086V47.3164C8.625 47.4622 8.58854 47.5898 8.51562 47.6992C8.44271 47.8086 8.32422 47.8997 8.16016 47.9727C7.99609 48.0273 7.78646 48.0729 7.53125 48.1094C7.29427 48.1458 6.98438 48.1641 6.60156 48.1641C6.23698 48.1641 5.92708 48.1458 5.67188 48.1094C5.41667 48.0729 5.20703 48.0273 5.04297 47.9727C4.87891 47.8997 4.76953 47.8086 4.71484 47.6992C4.66016 47.5898 4.63281 47.4622 4.63281 47.3164V10.7852C4.63281 10.6393 4.66016 10.5117 4.71484 10.4023C4.78776 10.293 4.90625 10.2018 5.07031 10.1289C5.2526 10.056 5.48958 10.0013 5.78125 9.96484C6.07292 9.92839 6.4375 9.91016 6.875 9.91016C7.33073 9.91016 7.70443 9.92839 7.99609 9.96484C8.28776 10.0013 8.51562 10.056 8.67969 10.1289C8.84375 10.2018 8.96224 10.293 9.03516 10.4023C9.10807 10.5117 9.14453 10.6393 9.14453 10.7852V25.5234C9.8737 24.776 10.5755 24.1471 11.25 23.6367C11.9427 23.1263 12.6172 22.7161 13.2734 22.4062C13.9297 22.0781 14.5859 21.8411 15.2422 21.6953C15.8984 21.5495 16.5911 21.4766 17.3203 21.4766C19.1068 21.4766 20.6289 21.832 21.8867 22.543C23.1628 23.2539 24.1927 24.2109 24.9766 25.4141C25.7786 26.599 26.362 27.9935 26.7266 29.5977C27.0911 31.2018 27.2734 32.8971 27.2734 34.6836ZM22.5156 35.2031C22.5156 33.9453 22.4154 32.724 22.2148 31.5391C22.0326 30.3542 21.7044 29.306 21.2305 28.3945C20.7565 27.4831 20.1276 26.7539 19.3438 26.207C18.5599 25.6419 17.5846 25.3594 16.418 25.3594C15.8346 25.3594 15.2604 25.4414 14.6953 25.6055C14.1302 25.7695 13.556 26.043 12.9727 26.4258C12.3893 26.8086 11.7786 27.3008 11.1406 27.9023C10.5208 28.5039 9.85547 29.2604 9.14453 30.1719V39.9883C10.3841 41.5013 11.569 42.6589 12.6992 43.4609C13.8294 44.2448 15.0052 44.6367 16.2266 44.6367C17.3568 44.6367 18.3229 44.3633 19.125 43.8164C19.9271 43.2695 20.5742 42.5495 21.0664 41.6562C21.5768 40.7448 21.9414 39.7331 22.1602 38.6211C22.3971 37.4909 22.5156 36.3516 22.5156 35.2031ZM55.1367 47.3164C55.1367 47.4622 55.1003 47.5898 55.0273 47.6992C54.9727 47.7904 54.8633 47.8724 54.6992 47.9453C54.5352 48.0182 54.3164 48.0729 54.043 48.1094C53.7878 48.1458 53.4688 48.1641 53.0859 48.1641C52.6667 48.1641 52.3203 48.1458 52.0469 48.1094C51.7917 48.0729 51.582 48.0182 51.418 47.9453C51.2721 47.8724 51.1719 47.7904 51.1172 47.6992C51.0625 47.5898 51.0352 47.4622 51.0352 47.3164V44.0625C49.6315 45.612 48.2461 46.7422 46.8789 47.4531C45.5117 48.1641 44.1263 48.5195 42.7227 48.5195C41.082 48.5195 39.6966 48.2461 38.5664 47.6992C37.4544 47.1523 36.5521 46.4141 35.8594 45.4844C35.1667 44.5365 34.6654 43.4427 34.3555 42.2031C34.0638 40.9453 33.918 39.4232 33.918 37.6367V22.707C33.918 22.5612 33.9453 22.4427 34 22.3516C34.0729 22.2422 34.2005 22.151 34.3828 22.0781C34.5651 21.987 34.8021 21.9323 35.0938 21.9141C35.3854 21.8776 35.75 21.8594 36.1875 21.8594C36.625 21.8594 36.9896 21.8776 37.2812 21.9141C37.5729 21.9323 37.8008 21.987 37.9648 22.0781C38.1471 22.151 38.2747 22.2422 38.3477 22.3516C38.4206 22.4427 38.457 22.5612 38.457 22.707V37.0352C38.457 38.4753 38.5573 39.6328 38.7578 40.5078C38.9766 41.3646 39.2956 42.1029 39.7148 42.7227C40.1523 43.3242 40.6992 43.7982 41.3555 44.1445C42.0117 44.4727 42.7773 44.6367 43.6523 44.6367C44.7826 44.6367 45.9036 44.2357 47.0156 43.4336C48.1458 42.6315 49.3398 41.4557 50.5977 39.9062V22.707C50.5977 22.5612 50.625 22.4427 50.6797 22.3516C50.7526 22.2422 50.8802 22.151 51.0625 22.0781C51.2448 21.987 51.4727 21.9323 51.7461 21.9141C52.0378 21.8776 52.4115 21.8594 52.8672 21.8594C53.3047 21.8594 53.6693 21.8776 53.9609 21.9141C54.2526 21.9323 54.4805 21.987 54.6445 22.0781C54.8086 22.151 54.9271 22.2422 55 22.3516C55.0911 22.4427 55.1367 22.5612 55.1367 22.707V47.3164ZM93.0078 45.5117C93.0078 46.0404 92.9714 46.4596 92.8984 46.7695C92.8255 47.0612 92.707 47.2799 92.543 47.4258C92.3971 47.5716 92.1875 47.7083 91.9141 47.8359C91.6406 47.9635 91.3125 48.0729 90.9297 48.1641C90.5651 48.2552 90.1641 48.3281 89.7266 48.3828C89.3073 48.4375 88.8971 48.4648 88.4961 48.4648C87.2018 48.4648 86.099 48.3008 85.1875 47.9727C84.276 47.6263 83.5286 47.1159 82.9453 46.4414C82.3802 45.7487 81.9609 44.8828 81.6875 43.8438C81.4141 42.7865 81.2773 41.5469 81.2773 40.125V25.7422H69.0547V39.4688C69.0547 41.1641 69.3008 42.4492 69.793 43.3242C70.3034 44.181 71.2057 44.6094 72.5 44.6094C72.9193 44.6094 73.293 44.5729 73.6211 44.5C73.9492 44.4089 74.2409 44.3177 74.4961 44.2266C74.7513 44.1354 74.9701 44.0534 75.1523 43.9805C75.3346 43.8893 75.4987 43.8438 75.6445 43.8438C75.7357 43.8438 75.8177 43.8711 75.8906 43.9258C75.9818 43.9622 76.0456 44.0443 76.082 44.1719C76.1367 44.2995 76.1823 44.4727 76.2188 44.6914C76.2552 44.9102 76.2734 45.1836 76.2734 45.5117C76.2734 45.8216 76.2643 46.0677 76.2461 46.25C76.2279 46.4323 76.2005 46.6055 76.1641 46.7695C76.1458 46.9154 76.1003 47.0521 76.0273 47.1797C75.9727 47.2891 75.8724 47.4076 75.7266 47.5352C75.599 47.6445 75.3984 47.763 75.125 47.8906C74.8516 48 74.5326 48.0911 74.168 48.1641C73.8034 48.2552 73.4115 48.3281 72.9922 48.3828C72.5729 48.4375 72.1536 48.4648 71.7344 48.4648C70.4583 48.4648 69.3646 48.3008 68.4531 47.9727C67.5417 47.6263 66.7943 47.1159 66.2109 46.4414C65.6276 45.7487 65.1992 44.8828 64.9258 43.8438C64.6706 42.7865 64.543 41.5469 64.543 40.125V25.7422H61.0977C60.8242 25.7422 60.6055 25.5964 60.4414 25.3047C60.2773 25.013 60.1953 24.5391 60.1953 23.8828C60.1953 23.5365 60.2135 23.2448 60.25 23.0078C60.3047 22.7708 60.3685 22.5794 60.4414 22.4336C60.5143 22.2695 60.6055 22.1602 60.7148 22.1055C60.8424 22.0326 60.9792 21.9961 61.125 21.9961H64.543V16.1445C64.543 16.0169 64.5703 15.8984 64.625 15.7891C64.6979 15.6797 64.8164 15.5885 64.9805 15.5156C65.1628 15.4245 65.3997 15.3607 65.6914 15.3242C65.9831 15.2878 66.3477 15.2695 66.7852 15.2695C67.2409 15.2695 67.6146 15.2878 67.9062 15.3242C68.1979 15.3607 68.4258 15.4245 68.5898 15.5156C68.7539 15.5885 68.8724 15.6797 68.9453 15.7891C69.0182 15.8984 69.0547 16.0169 69.0547 16.1445V21.9961H81.2773V14.9688C81.2773 14.8229 81.3138 14.6953 81.3867 14.5859C81.4596 14.4766 81.5781 14.3945 81.7422 14.3398C81.9245 14.2669 82.1615 14.2122 82.4531 14.1758C82.7448 14.1211 83.1094 14.0938 83.5469 14.0938C83.9844 14.0938 84.349 14.1211 84.6406 14.1758C84.9323 14.2122 85.1602 14.2669 85.3242 14.3398C85.5065 14.3945 85.6341 14.4766 85.707 14.5859C85.7799 14.6953 85.8164 14.8229 85.8164 14.9688V21.9961H92.1055C92.2513 21.9961 92.3789 22.0326 92.4883 22.1055C92.5977 22.1602 92.6888 22.2695 92.7617 22.4336C92.8529 22.5794 92.9167 22.7708 92.9531 23.0078C92.9896 23.2448 93.0078 23.5365 93.0078 23.8828C93.0078 24.5391 92.9258 25.013 92.7617 25.3047C92.5977 25.5964 92.388 25.7422 92.1328 25.7422H85.8164V39.4688C85.8164 41.1641 86.0625 42.4492 86.5547 43.3242C87.0469 44.181 87.9401 44.6094 89.2344 44.6094C89.6354 44.6094 90 44.5729 90.3281 44.5C90.6745 44.4089 90.9753 44.3177 91.2305 44.2266C91.4857 44.1354 91.7044 44.0534 91.8867 43.9805C92.0872 43.8893 92.2513 43.8438 92.3789 43.8438C92.4883 43.8438 92.5794 43.8711 92.6523 43.9258C92.7253 43.9622 92.7799 44.0443 92.8164 44.1719C92.8711 44.2995 92.9167 44.4727 92.9531 44.6914C92.9896 44.9102 93.0078 45.1836 93.0078 45.5117ZM119.422 33.9453C119.422 34.6562 119.24 35.1667 118.875 35.4766C118.529 35.7682 118.128 35.9141 117.672 35.9141H101.539C101.539 37.2812 101.676 38.5117 101.949 39.6055C102.223 40.6992 102.678 41.638 103.316 42.4219C103.954 43.2057 104.784 43.8073 105.805 44.2266C106.826 44.6458 108.074 44.8555 109.551 44.8555C110.717 44.8555 111.757 44.7643 112.668 44.582C113.579 44.3815 114.363 44.1628 115.02 43.9258C115.694 43.6888 116.241 43.4792 116.66 43.2969C117.098 43.0964 117.426 42.9961 117.645 42.9961C117.772 42.9961 117.882 43.0326 117.973 43.1055C118.082 43.1602 118.164 43.2513 118.219 43.3789C118.273 43.5065 118.31 43.6888 118.328 43.9258C118.365 44.1445 118.383 44.418 118.383 44.7461C118.383 44.9831 118.374 45.1927 118.355 45.375C118.337 45.5391 118.31 45.694 118.273 45.8398C118.255 45.9674 118.21 46.0859 118.137 46.1953C118.082 46.3047 118 46.4141 117.891 46.5234C117.799 46.6146 117.508 46.7786 117.016 47.0156C116.523 47.2344 115.885 47.4531 115.102 47.6719C114.318 47.8906 113.406 48.082 112.367 48.2461C111.346 48.4284 110.253 48.5195 109.086 48.5195C107.062 48.5195 105.285 48.237 103.754 47.6719C102.241 47.1068 100.965 46.2682 99.9258 45.1562C98.8867 44.0443 98.1029 42.6497 97.5742 40.9727C97.0456 39.2956 96.7812 37.3451 96.7812 35.1211C96.7812 33.0065 97.0547 31.1107 97.6016 29.4336C98.1484 27.7383 98.9323 26.3073 99.9531 25.1406C100.992 23.9557 102.241 23.0534 103.699 22.4336C105.158 21.7956 106.789 21.4766 108.594 21.4766C110.526 21.4766 112.167 21.7865 113.516 22.4062C114.883 23.026 116.004 23.8646 116.879 24.9219C117.754 25.9609 118.392 27.1914 118.793 28.6133C119.212 30.0169 119.422 31.5208 119.422 33.125V33.9453ZM114.883 32.6055C114.938 30.2357 114.409 28.3763 113.297 27.0273C112.203 25.6784 110.572 25.0039 108.402 25.0039C107.29 25.0039 106.315 25.2135 105.477 25.6328C104.638 26.0521 103.936 26.6081 103.371 27.3008C102.806 27.9935 102.368 28.8047 102.059 29.7344C101.749 30.6458 101.576 31.6029 101.539 32.6055H114.883ZM140.695 24.3203C140.695 24.7214 140.686 25.0586 140.668 25.332C140.65 25.6055 140.613 25.8242 140.559 25.9883C140.504 26.1341 140.431 26.2526 140.34 26.3438C140.267 26.4167 140.158 26.4531 140.012 26.4531C139.866 26.4531 139.684 26.4167 139.465 26.3438C139.264 26.2526 139.027 26.1706 138.754 26.0977C138.499 26.0065 138.207 25.9245 137.879 25.8516C137.551 25.7786 137.195 25.7422 136.812 25.7422C136.357 25.7422 135.91 25.8333 135.473 26.0156C135.035 26.1979 134.57 26.4987 134.078 26.918C133.604 27.3372 133.103 27.8932 132.574 28.5859C132.046 29.2786 131.462 30.1263 130.824 31.1289V47.3164C130.824 47.4622 130.788 47.5898 130.715 47.6992C130.642 47.7904 130.523 47.8724 130.359 47.9453C130.195 48.0182 129.967 48.0729 129.676 48.1094C129.384 48.1458 129.01 48.1641 128.555 48.1641C128.117 48.1641 127.753 48.1458 127.461 48.1094C127.169 48.0729 126.932 48.0182 126.75 47.9453C126.586 47.8724 126.467 47.7904 126.395 47.6992C126.34 47.5898 126.312 47.4622 126.312 47.3164V22.707C126.312 22.5612 126.34 22.4427 126.395 22.3516C126.449 22.2422 126.559 22.151 126.723 22.0781C126.887 21.987 127.096 21.9323 127.352 21.9141C127.607 21.8776 127.944 21.8594 128.363 21.8594C128.764 21.8594 129.092 21.8776 129.348 21.9141C129.621 21.9323 129.831 21.987 129.977 22.0781C130.122 22.151 130.223 22.2422 130.277 22.3516C130.35 22.4427 130.387 22.5612 130.387 22.707V26.2891C131.061 25.3047 131.69 24.5026 132.273 23.8828C132.875 23.263 133.44 22.7799 133.969 22.4336C134.497 22.069 135.017 21.8229 135.527 21.6953C136.056 21.5495 136.585 21.4766 137.113 21.4766C137.35 21.4766 137.615 21.4948 137.906 21.5312C138.216 21.5495 138.535 21.5951 138.863 21.668C139.191 21.7409 139.483 21.8229 139.738 21.9141C140.012 22.0052 140.203 22.0964 140.312 22.1875C140.422 22.2786 140.495 22.3698 140.531 22.4609C140.568 22.5339 140.595 22.6341 140.613 22.7617C140.65 22.8893 140.668 23.0807 140.668 23.3359C140.686 23.5729 140.695 23.901 140.695 24.3203ZM182.75 47.3164C182.75 47.4622 182.714 47.5898 182.641 47.6992C182.568 47.7904 182.44 47.8724 182.258 47.9453C182.094 48.0182 181.866 48.0729 181.574 48.1094C181.283 48.1458 180.909 48.1641 180.453 48.1641C180.034 48.1641 179.669 48.1458 179.359 48.1094C179.068 48.0729 178.831 48.0182 178.648 47.9453C178.484 47.8724 178.366 47.7904 178.293 47.6992C178.238 47.5898 178.211 47.4622 178.211 47.3164V13.9023C178.156 13.957 178.092 14.0026 178.02 14.0391C177.947 14.0573 177.846 14.0664 177.719 14.0664C177.5 14.0664 177.172 14.0208 176.734 13.9297C176.315 13.8203 175.859 13.7292 175.367 13.6562C174.893 13.5833 174.438 13.5286 174 13.4922C173.562 13.4557 173.152 13.4375 172.77 13.4375C171.639 13.4375 170.71 13.556 169.98 13.793C169.251 14.0117 168.677 14.3672 168.258 14.8594C167.839 15.3333 167.547 15.944 167.383 16.6914C167.219 17.4206 167.137 18.2865 167.137 19.2891V21.9961H172.223C172.368 21.9961 172.487 22.0326 172.578 22.1055C172.688 22.1602 172.779 22.2695 172.852 22.4336C172.943 22.5794 173.007 22.7708 173.043 23.0078C173.079 23.2448 173.098 23.5365 173.098 23.8828C173.098 24.5391 173.016 25.013 172.852 25.3047C172.706 25.5964 172.496 25.7422 172.223 25.7422H167.137V47.3164C167.137 47.4622 167.1 47.5898 167.027 47.6992C166.954 47.7904 166.827 47.8724 166.645 47.9453C166.48 48.0182 166.253 48.0729 165.961 48.1094C165.669 48.1458 165.305 48.1641 164.867 48.1641C164.43 48.1641 164.065 48.1458 163.773 48.1094C163.482 48.0729 163.245 48.0182 163.062 47.9453C162.898 47.8724 162.78 47.7904 162.707 47.6992C162.634 47.5898 162.598 47.4622 162.598 47.3164V25.7422H151.551V47.3164C151.551 47.4622 151.514 47.5898 151.441 47.6992C151.368 47.7904 151.241 47.8724 151.059 47.9453C150.895 48.0182 150.667 48.0729 150.375 48.1094C150.083 48.1458 149.719 48.1641 149.281 48.1641C148.844 48.1641 148.479 48.1458 148.188 48.1094C147.896 48.0729 147.659 48.0182 147.477 47.9453C147.312 47.8724 147.194 47.7904 147.121 47.6992C147.048 47.5898 147.012 47.4622 147.012 47.3164V25.7422H143.539C143.247 25.7422 143.029 25.5964 142.883 25.3047C142.737 25.013 142.664 24.5391 142.664 23.8828C142.664 23.5365 142.682 23.2448 142.719 23.0078C142.755 22.7708 142.81 22.5794 142.883 22.4336C142.956 22.2695 143.047 22.1602 143.156 22.1055C143.266 22.0326 143.393 21.9961 143.539 21.9961H147.012V19.6719C147.012 17.9766 147.176 16.5273 147.504 15.3242C147.832 14.1029 148.324 13.1003 148.98 12.3164C149.637 11.5326 150.448 10.9583 151.414 10.5938C152.398 10.2109 153.538 10.0195 154.832 10.0195C155.634 10.0195 156.336 10.0924 156.938 10.2383C157.539 10.3659 157.977 10.4935 158.25 10.6211C158.542 10.7305 158.742 10.8398 158.852 10.9492C158.961 11.0586 159.052 11.2044 159.125 11.3867C159.198 11.5508 159.243 11.7604 159.262 12.0156C159.298 12.2526 159.316 12.5443 159.316 12.8906C159.316 13.474 159.271 13.9023 159.18 14.1758C159.089 14.431 158.924 14.5586 158.688 14.5586C158.542 14.5586 158.368 14.5221 158.168 14.4492C157.986 14.3581 157.749 14.2669 157.457 14.1758C157.165 14.0664 156.837 13.9753 156.473 13.9023C156.108 13.8112 155.689 13.7656 155.215 13.7656C153.866 13.7656 152.918 14.2305 152.371 15.1602C151.824 16.0898 151.551 17.5755 151.551 19.6172V21.9961H162.598V19.3438C162.598 17.6484 162.789 16.1992 163.172 14.9961C163.555 13.7747 164.138 12.7721 164.922 11.9883C165.724 11.2044 166.736 10.6302 167.957 10.2656C169.178 9.88281 170.637 9.69141 172.332 9.69141C172.806 9.69141 173.298 9.70964 173.809 9.74609C174.319 9.78255 174.811 9.83724 175.285 9.91016C175.777 9.96484 176.206 10.0286 176.57 10.1016C176.935 10.1562 177.217 10.2201 177.418 10.293C177.618 10.3477 177.783 10.4206 177.91 10.5117C178.038 10.6029 178.138 10.7305 178.211 10.8945C178.211 10.7122 178.238 10.5664 178.293 10.457C178.366 10.3477 178.484 10.2474 178.648 10.1562C178.812 10.0651 179.04 10.0013 179.332 9.96484C179.624 9.92839 179.997 9.91016 180.453 9.91016C180.909 9.91016 181.283 9.92839 181.574 9.96484C181.866 10.0013 182.094 10.056 182.258 10.1289C182.44 10.2018 182.568 10.293 182.641 10.4023C182.714 10.5117 182.75 10.6393 182.75 10.7852V47.3164ZM195.574 47.3164C195.574 47.4622 195.538 47.5898 195.465 47.6992C195.392 47.7904 195.273 47.8724 195.109 47.9453C194.945 48.0182 194.717 48.0729 194.426 48.1094C194.134 48.1458 193.76 48.1641 193.305 48.1641C192.867 48.1641 192.503 48.1458 192.211 48.1094C191.919 48.0729 191.682 48.0182 191.5 47.9453C191.336 47.8724 191.217 47.7904 191.145 47.6992C191.09 47.5898 191.062 47.4622 191.062 47.3164V22.707C191.062 22.5794 191.09 22.4609 191.145 22.3516C191.217 22.2422 191.336 22.151 191.5 22.0781C191.682 22.0052 191.919 21.9505 192.211 21.9141C192.503 21.8776 192.867 21.8594 193.305 21.8594C193.76 21.8594 194.134 21.8776 194.426 21.9141C194.717 21.9505 194.945 22.0052 195.109 22.0781C195.273 22.151 195.392 22.2422 195.465 22.3516C195.538 22.4609 195.574 22.5794 195.574 22.707V47.3164ZM196.094 14.3945C196.094 15.4518 195.893 16.1719 195.492 16.5547C195.091 16.9375 194.353 17.1289 193.277 17.1289C192.22 17.1289 191.491 16.9466 191.09 16.582C190.707 16.1992 190.516 15.4883 190.516 14.4492C190.516 13.3919 190.716 12.6719 191.117 12.2891C191.518 11.9062 192.257 11.7148 193.332 11.7148C194.389 11.7148 195.109 11.9062 195.492 12.2891C195.893 12.6536 196.094 13.3555 196.094 14.3945ZM224.914 33.9453C224.914 34.6562 224.732 35.1667 224.367 35.4766C224.021 35.7682 223.62 35.9141 223.164 35.9141H207.031C207.031 37.2812 207.168 38.5117 207.441 39.6055C207.715 40.6992 208.171 41.638 208.809 42.4219C209.447 43.2057 210.276 43.8073 211.297 44.2266C212.318 44.6458 213.566 44.8555 215.043 44.8555C216.21 44.8555 217.249 44.7643 218.16 44.582C219.072 44.3815 219.855 44.1628 220.512 43.9258C221.186 43.6888 221.733 43.4792 222.152 43.2969C222.59 43.0964 222.918 42.9961 223.137 42.9961C223.264 42.9961 223.374 43.0326 223.465 43.1055C223.574 43.1602 223.656 43.2513 223.711 43.3789C223.766 43.5065 223.802 43.6888 223.82 43.9258C223.857 44.1445 223.875 44.418 223.875 44.7461C223.875 44.9831 223.866 45.1927 223.848 45.375C223.829 45.5391 223.802 45.694 223.766 45.8398C223.747 45.9674 223.702 46.0859 223.629 46.1953C223.574 46.3047 223.492 46.4141 223.383 46.5234C223.292 46.6146 223 46.7786 222.508 47.0156C222.016 47.2344 221.378 47.4531 220.594 47.6719C219.81 47.8906 218.898 48.082 217.859 48.2461C216.839 48.4284 215.745 48.5195 214.578 48.5195C212.555 48.5195 210.777 48.237 209.246 47.6719C207.733 47.1068 206.457 46.2682 205.418 45.1562C204.379 44.0443 203.595 42.6497 203.066 40.9727C202.538 39.2956 202.273 37.3451 202.273 35.1211C202.273 33.0065 202.547 31.1107 203.094 29.4336C203.641 27.7383 204.424 26.3073 205.445 25.1406C206.484 23.9557 207.733 23.0534 209.191 22.4336C210.65 21.7956 212.281 21.4766 214.086 21.4766C216.018 21.4766 217.659 21.7865 219.008 22.4062C220.375 23.026 221.496 23.8646 222.371 24.9219C223.246 25.9609 223.884 27.1914 224.285 28.6133C224.704 30.0169 224.914 31.5208 224.914 33.125V33.9453ZM220.375 32.6055C220.43 30.2357 219.901 28.3763 218.789 27.0273C217.695 25.6784 216.064 25.0039 213.895 25.0039C212.783 25.0039 211.807 25.2135 210.969 25.6328C210.13 26.0521 209.428 26.6081 208.863 27.3008C208.298 27.9935 207.861 28.8047 207.551 29.7344C207.241 30.6458 207.068 31.6029 207.031 32.6055H220.375ZM247.254 40.6172C247.254 41.875 247.017 42.9961 246.543 43.9805C246.087 44.9648 245.431 45.7943 244.574 46.4688C243.717 47.1432 242.697 47.6536 241.512 48C240.327 48.3464 239.023 48.5195 237.602 48.5195C236.727 48.5195 235.888 48.4466 235.086 48.3008C234.302 48.1732 233.591 48.0091 232.953 47.8086C232.333 47.5898 231.805 47.3711 231.367 47.1523C230.93 46.9154 230.611 46.7057 230.41 46.5234C230.21 46.3411 230.064 46.0859 229.973 45.7578C229.882 45.4297 229.836 44.9831 229.836 44.418C229.836 44.0716 229.854 43.7799 229.891 43.543C229.927 43.306 229.973 43.1146 230.027 42.9688C230.082 42.8229 230.155 42.7227 230.246 42.668C230.355 42.5951 230.474 42.5586 230.602 42.5586C230.802 42.5586 231.094 42.6862 231.477 42.9414C231.878 43.1784 232.361 43.4427 232.926 43.7344C233.509 44.026 234.193 44.2995 234.977 44.5547C235.76 44.7917 236.663 44.9102 237.684 44.9102C238.449 44.9102 239.142 44.8281 239.762 44.6641C240.382 44.5 240.919 44.263 241.375 43.9531C241.831 43.625 242.177 43.2148 242.414 42.7227C242.669 42.2305 242.797 41.6471 242.797 40.9727C242.797 40.2799 242.615 39.6966 242.25 39.2227C241.904 38.7487 241.439 38.3294 240.855 37.9648C240.272 37.6003 239.616 37.2812 238.887 37.0078C238.158 36.7161 237.401 36.4154 236.617 36.1055C235.852 35.7956 235.095 35.4492 234.348 35.0664C233.618 34.6654 232.962 34.1823 232.379 33.6172C231.796 33.0521 231.322 32.3776 230.957 31.5938C230.611 30.8099 230.438 29.8711 230.438 28.7773C230.438 27.8112 230.62 26.8906 230.984 26.0156C231.367 25.1224 231.932 24.3477 232.68 23.6914C233.427 23.0169 234.357 22.4792 235.469 22.0781C236.599 21.6771 237.911 21.4766 239.406 21.4766C240.062 21.4766 240.719 21.5312 241.375 21.6406C242.031 21.75 242.624 21.8867 243.152 22.0508C243.681 22.2148 244.128 22.3971 244.492 22.5977C244.875 22.7799 245.158 22.944 245.34 23.0898C245.54 23.2357 245.668 23.3633 245.723 23.4727C245.796 23.582 245.841 23.7096 245.859 23.8555C245.896 23.9831 245.923 24.1471 245.941 24.3477C245.978 24.5482 245.996 24.7943 245.996 25.0859C245.996 25.3958 245.978 25.6693 245.941 25.9062C245.923 26.125 245.878 26.3073 245.805 26.4531C245.75 26.599 245.677 26.7083 245.586 26.7812C245.495 26.8359 245.395 26.8633 245.285 26.8633C245.121 26.8633 244.884 26.763 244.574 26.5625C244.264 26.362 243.863 26.1523 243.371 25.9336C242.879 25.6966 242.296 25.4779 241.621 25.2773C240.965 25.0768 240.208 24.9766 239.352 24.9766C238.586 24.9766 237.911 25.0677 237.328 25.25C236.745 25.4141 236.262 25.6602 235.879 25.9883C235.514 26.2982 235.232 26.6719 235.031 27.1094C234.849 27.5469 234.758 28.0208 234.758 28.5312C234.758 29.2422 234.94 29.8438 235.305 30.3359C235.669 30.8099 236.143 31.2292 236.727 31.5938C237.31 31.9583 237.975 32.2865 238.723 32.5781C239.47 32.8698 240.227 33.1706 240.992 33.4805C241.776 33.7904 242.542 34.1367 243.289 34.5195C244.055 34.9023 244.729 35.3672 245.312 35.9141C245.896 36.4609 246.361 37.1172 246.707 37.8828C247.072 38.6484 247.254 39.5599 247.254 40.6172Z" fill="#555D65"/>
<path d="M42.1738 76L45.7476 66.6943H47.0742L50.8828 76H49.48L48.3945 73.1816H44.5034L43.4814 76H42.1738ZM44.8589 72.1787H48.0137L47.0425 69.6016C46.7463 68.8187 46.5262 68.1755 46.3823 67.6719C46.2638 68.2686 46.0967 68.861 45.8809 69.4492L44.8589 72.1787ZM51.8857 76V66.6943H56.0117C56.8411 66.6943 57.4717 66.779 57.9033 66.9482C58.335 67.1133 58.6799 67.4074 58.938 67.8306C59.1961 68.2537 59.3252 68.7214 59.3252 69.2334C59.3252 69.8936 59.1115 70.45 58.6841 70.9028C58.2567 71.3556 57.5965 71.6434 56.7036 71.7661C57.0295 71.9227 57.277 72.0771 57.4463 72.2295C57.806 72.5596 58.1466 72.9722 58.4683 73.4673L60.0869 76H58.5381L57.3066 74.064C56.9469 73.5054 56.6507 73.078 56.418 72.7817C56.1852 72.4855 55.9757 72.2782 55.7896 72.1597C55.6076 72.0412 55.4214 71.9587 55.231 71.9121C55.0913 71.8825 54.8628 71.8677 54.5454 71.8677H53.1172V76H51.8857ZM53.1172 70.8013H55.7642C56.327 70.8013 56.7671 70.7441 57.0845 70.6299C57.4019 70.5114 57.6431 70.3252 57.8081 70.0713C57.9731 69.8132 58.0557 69.5339 58.0557 69.2334C58.0557 68.7933 57.8949 68.4315 57.5732 68.1479C57.2559 67.8644 56.7523 67.7227 56.0625 67.7227H53.1172V70.8013ZM67.9009 72.7373L69.1323 73.0483C68.8742 74.0597 68.4087 74.832 67.7358 75.3652C67.0672 75.8942 66.2484 76.1587 65.2793 76.1587C64.2764 76.1587 63.4596 75.9556 62.8291 75.5493C62.2028 75.1388 61.7246 74.5464 61.3945 73.772C61.0687 72.9976 60.9058 72.166 60.9058 71.2773C60.9058 70.3083 61.0898 69.464 61.458 68.7446C61.8304 68.021 62.3573 67.473 63.0386 67.1006C63.7241 66.724 64.4774 66.5356 65.2983 66.5356C66.2293 66.5356 67.0122 66.7726 67.647 67.2466C68.2817 67.7205 68.724 68.387 68.9736 69.2461L67.7612 69.5317C67.5454 68.8547 67.2323 68.3617 66.8218 68.0527C66.4113 67.7438 65.895 67.5894 65.2729 67.5894C64.5578 67.5894 63.959 67.7607 63.4766 68.1035C62.9984 68.4463 62.6619 68.9076 62.4673 69.4873C62.2726 70.0628 62.1753 70.6574 62.1753 71.271C62.1753 72.0623 62.2896 72.7542 62.5181 73.3467C62.7508 73.9349 63.1105 74.375 63.5972 74.667C64.0838 74.959 64.6107 75.105 65.1777 75.105C65.8675 75.105 66.4515 74.9061 66.9297 74.5083C67.4079 74.1105 67.7316 73.5202 67.9009 72.7373ZM70.6938 76V66.6943H71.9253V70.5156H76.7622V66.6943H77.9937V76H76.7622V71.6138H71.9253V76H70.6938ZM80.2598 76V66.6943H81.4912V76H80.2598ZM86.0361 76V67.7925H82.9702V66.6943H90.3462V67.7925H87.2676V76H86.0361ZM91.6411 76V66.6943H98.3696V67.7925H92.8726V70.6426H98.0205V71.7344H92.8726V74.9019H98.5854V76H91.6411ZM106.926 72.7373L108.158 73.0483C107.9 74.0597 107.434 74.832 106.761 75.3652C106.093 75.8942 105.274 76.1587 104.305 76.1587C103.302 76.1587 102.485 75.9556 101.854 75.5493C101.228 75.1388 100.75 74.5464 100.42 73.772C100.094 72.9976 99.9312 72.166 99.9312 71.2773C99.9312 70.3083 100.115 69.464 100.483 68.7446C100.856 68.021 101.383 67.473 102.064 67.1006C102.75 66.724 103.503 66.5356 104.324 66.5356C105.255 66.5356 106.038 66.7726 106.672 67.2466C107.307 67.7205 107.749 68.387 107.999 69.2461L106.787 69.5317C106.571 68.8547 106.258 68.3617 105.847 68.0527C105.437 67.7438 104.92 67.5894 104.298 67.5894C103.583 67.5894 102.984 67.7607 102.502 68.1035C102.024 68.4463 101.687 68.9076 101.493 69.4873C101.298 70.0628 101.201 70.6574 101.201 71.271C101.201 72.0623 101.315 72.7542 101.543 73.3467C101.776 73.9349 102.136 74.375 102.623 74.667C103.109 74.959 103.636 75.105 104.203 75.105C104.893 75.105 105.477 74.9061 105.955 74.5083C106.433 74.1105 106.757 73.5202 106.926 72.7373ZM112.049 76V67.7925H108.983V66.6943H116.359V67.7925H113.28V76H112.049ZM117.209 73.0103L118.371 72.9087C118.426 73.3742 118.553 73.7572 118.752 74.0576C118.955 74.3538 119.268 74.5951 119.691 74.7812C120.115 74.9632 120.591 75.0542 121.12 75.0542C121.589 75.0542 122.004 74.9844 122.364 74.8447C122.723 74.7051 122.99 74.5146 123.164 74.2734C123.341 74.028 123.43 73.7614 123.43 73.4736C123.43 73.1816 123.346 72.9277 123.176 72.7119C123.007 72.4919 122.728 72.3078 122.338 72.1597C122.089 72.0623 121.536 71.9121 120.682 71.709C119.827 71.5016 119.228 71.307 118.885 71.125C118.441 70.8923 118.109 70.6045 117.889 70.2617C117.673 69.9147 117.565 69.5275 117.565 69.1001C117.565 68.6304 117.698 68.1924 117.965 67.7861C118.231 67.3757 118.621 67.0646 119.133 66.853C119.645 66.6414 120.214 66.5356 120.84 66.5356C121.53 66.5356 122.137 66.6478 122.662 66.8721C123.191 67.0921 123.597 67.418 123.881 67.8496C124.164 68.2812 124.317 68.77 124.338 69.3159L123.157 69.4048C123.094 68.8166 122.878 68.3722 122.51 68.0718C122.146 67.7713 121.606 67.6211 120.891 67.6211C120.146 67.6211 119.603 67.7586 119.26 68.0337C118.921 68.3045 118.752 68.6325 118.752 69.0176C118.752 69.3519 118.873 69.627 119.114 69.8428C119.351 70.0586 119.969 70.2808 120.967 70.5093C121.97 70.7336 122.658 70.9303 123.03 71.0996C123.572 71.3493 123.972 71.6667 124.23 72.0518C124.488 72.4326 124.617 72.8727 124.617 73.3721C124.617 73.8672 124.475 74.3348 124.192 74.7749C123.908 75.2108 123.5 75.5514 122.967 75.7969C122.438 76.0381 121.841 76.1587 121.177 76.1587C120.335 76.1587 119.628 76.036 119.057 75.7905C118.49 75.5451 118.043 75.1769 117.717 74.686C117.396 74.1909 117.226 73.6323 117.209 73.0103ZM135.091 74.9019C134.714 75.3208 134.304 75.6361 133.859 75.8477C133.415 76.055 132.935 76.1587 132.418 76.1587C131.466 76.1587 130.711 75.8371 130.152 75.1938C129.7 74.6691 129.473 74.083 129.473 73.4355C129.473 72.86 129.657 72.3416 130.025 71.8804C130.398 71.4149 130.952 71.0065 131.688 70.6553C131.27 70.1729 130.99 69.7814 130.851 69.481C130.711 69.1805 130.641 68.8906 130.641 68.6113C130.641 68.0527 130.859 67.5682 131.295 67.1577C131.735 66.743 132.287 66.5356 132.952 66.5356C133.586 66.5356 134.105 66.7303 134.507 67.1196C134.913 67.509 135.116 67.9766 135.116 68.5225C135.116 69.4069 134.53 70.1623 133.358 70.7886L135.027 72.915C135.218 72.5426 135.366 72.111 135.472 71.6201L136.659 71.874C136.456 72.6865 136.181 73.3551 135.833 73.8799C136.261 74.4469 136.745 74.923 137.287 75.3081L136.519 76.2158C136.058 75.9196 135.582 75.4816 135.091 74.9019ZM132.768 70.0522C133.263 69.7603 133.582 69.5042 133.726 69.2842C133.874 69.0641 133.948 68.8208 133.948 68.5542C133.948 68.2368 133.847 67.9787 133.644 67.7798C133.445 67.5767 133.195 67.4751 132.895 67.4751C132.586 67.4751 132.327 67.5745 132.12 67.7734C131.917 67.9723 131.815 68.2157 131.815 68.5034C131.815 68.6473 131.851 68.7996 131.923 68.9604C132 69.117 132.112 69.2842 132.26 69.4619L132.768 70.0522ZM134.374 74.0005L132.279 71.4043C131.661 71.7725 131.244 72.1152 131.028 72.4326C130.812 72.7458 130.705 73.0568 130.705 73.3657C130.705 73.7424 130.855 74.1338 131.155 74.54C131.456 74.9463 131.881 75.1494 132.431 75.1494C132.774 75.1494 133.127 75.0436 133.491 74.832C133.859 74.6162 134.153 74.339 134.374 74.0005ZM142.232 76V66.6943H148.96V67.7925H143.463V70.6426H148.611V71.7344H143.463V74.9019H149.176V76H142.232ZM150.865 76V66.6943H152.128L157.016 74.0005V66.6943H158.196V76H156.933L152.045 68.6875V76H150.865ZM164.626 72.3501V71.2583L168.568 71.252V74.7051C167.963 75.1875 167.339 75.5514 166.696 75.7969C166.053 76.0381 165.392 76.1587 164.715 76.1587C163.801 76.1587 162.97 75.964 162.221 75.5747C161.476 75.1812 160.913 74.6141 160.532 73.8735C160.151 73.133 159.961 72.3057 159.961 71.3916C159.961 70.486 160.149 69.6418 160.526 68.8589C160.907 68.0718 161.453 67.4878 162.164 67.1069C162.875 66.7261 163.693 66.5356 164.62 66.5356C165.293 66.5356 165.9 66.6457 166.442 66.8657C166.988 67.0815 167.415 67.3841 167.724 67.7734C168.033 68.1628 168.268 68.6706 168.429 69.2969L167.318 69.6016C167.178 69.1276 167.005 68.7552 166.797 68.4844C166.59 68.2135 166.294 67.9977 165.909 67.8369C165.524 67.6719 165.096 67.5894 164.626 67.5894C164.064 67.5894 163.577 67.6761 163.167 67.8496C162.756 68.0189 162.424 68.2432 162.17 68.5225C161.92 68.8018 161.726 69.1086 161.586 69.4429C161.349 70.0184 161.23 70.6426 161.23 71.3154C161.23 72.1449 161.372 72.8389 161.656 73.3975C161.944 73.9561 162.36 74.3708 162.906 74.6416C163.452 74.9124 164.032 75.0479 164.646 75.0479C165.179 75.0479 165.699 74.9463 166.207 74.7432C166.715 74.5358 167.1 74.3158 167.362 74.083V72.3501H164.626ZM170.6 76V66.6943H171.831V76H170.6ZM173.996 76V66.6943H175.259L180.146 74.0005V66.6943H181.327V76H180.064L175.176 68.6875V76H173.996ZM183.428 76V66.6943H190.157V67.7925H184.66V70.6426H189.808V71.7344H184.66V74.9019H190.373V76H183.428ZM192.099 76V66.6943H198.828V67.7925H193.331V70.6426H198.479V71.7344H193.331V74.9019H199.043V76H192.099ZM200.764 76V66.6943H204.89C205.719 66.6943 206.35 66.779 206.781 66.9482C207.213 67.1133 207.558 67.4074 207.816 67.8306C208.074 68.2537 208.203 68.7214 208.203 69.2334C208.203 69.8936 207.989 70.45 207.562 70.9028C207.135 71.3556 206.474 71.6434 205.582 71.7661C205.907 71.9227 206.155 72.0771 206.324 72.2295C206.684 72.5596 207.025 72.9722 207.346 73.4673L208.965 76H207.416L206.185 74.064C205.825 73.5054 205.529 73.078 205.296 72.7817C205.063 72.4855 204.854 72.2782 204.667 72.1597C204.486 72.0412 204.299 71.9587 204.109 71.9121C203.969 71.8825 203.741 71.8677 203.423 71.8677H201.995V76H200.764ZM201.995 70.8013H204.642C205.205 70.8013 205.645 70.7441 205.962 70.6299C206.28 70.5114 206.521 70.3252 206.686 70.0713C206.851 69.8132 206.934 69.5339 206.934 69.2334C206.934 68.7933 206.773 68.4315 206.451 68.1479C206.134 67.8644 205.63 67.7227 204.94 67.7227H201.995V70.8013ZM209.72 73.0103L210.882 72.9087C210.937 73.3742 211.064 73.7572 211.263 74.0576C211.466 74.3538 211.779 74.5951 212.202 74.7812C212.625 74.9632 213.101 75.0542 213.63 75.0542C214.1 75.0542 214.515 74.9844 214.875 74.8447C215.234 74.7051 215.501 74.5146 215.674 74.2734C215.852 74.028 215.941 73.7614 215.941 73.4736C215.941 73.1816 215.856 72.9277 215.687 72.7119C215.518 72.4919 215.238 72.3078 214.849 72.1597C214.599 72.0623 214.047 71.9121 213.192 71.709C212.338 71.5016 211.739 71.307 211.396 71.125C210.952 70.8923 210.619 70.6045 210.399 70.2617C210.184 69.9147 210.076 69.5275 210.076 69.1001C210.076 68.6304 210.209 68.1924 210.476 67.7861C210.742 67.3757 211.132 67.0646 211.644 66.853C212.156 66.6414 212.725 66.5356 213.351 66.5356C214.041 66.5356 214.648 66.6478 215.173 66.8721C215.702 67.0921 216.108 67.418 216.392 67.8496C216.675 68.2812 216.827 68.77 216.849 69.3159L215.668 69.4048C215.604 68.8166 215.389 68.3722 215.021 68.0718C214.657 67.7713 214.117 67.6211 213.402 67.6211C212.657 67.6211 212.113 67.7586 211.771 68.0337C211.432 68.3045 211.263 68.6325 211.263 69.0176C211.263 69.3519 211.383 69.627 211.625 69.8428C211.861 70.0586 212.479 70.2808 213.478 70.5093C214.481 70.7336 215.169 70.9303 215.541 71.0996C216.083 71.3493 216.483 71.6667 216.741 72.0518C216.999 72.4326 217.128 72.8727 217.128 73.3721C217.128 73.8672 216.986 74.3348 216.703 74.7749C216.419 75.2108 216.011 75.5514 215.478 75.7969C214.949 76.0381 214.352 76.1587 213.688 76.1587C212.845 76.1587 212.139 76.036 211.567 75.7905C211 75.5451 210.554 75.1769 210.228 74.686C209.906 74.1909 209.737 73.6323 209.72 73.0103Z" fill="#141414"/>
</svg>
